<svg width="251" height="117" viewBox="0 0 251 117" fill="none" xmlns="http://www.w3.org/2000/svg">
<circle cx="32" cy="60" r="32" fill="url(#paint0_radial_301_11)"/>
<path d="M73.7928 25.4H85.3128V52.76H85.6728C86.5128 50.06 88.1028 47.93 90.4428 46.37C92.7828 44.75 95.5128 43.94 98.6328 43.94C104.633 43.94 109.193 46.07 112.313 50.33C115.493 54.53 117.083 60.56 117.083 68.42C117.083 76.34 115.493 82.43 112.313 86.69C109.193 90.95 104.633 93.08 98.6328 93.08C95.5128 93.08 92.7828 92.27 90.4428 90.65C88.1628 89.03 86.5728 86.87 85.6728 84.17H85.3128V92H73.7928V25.4ZM94.9428 83.54C97.9428 83.54 100.373 82.55 102.233 80.57C104.093 78.59 105.023 75.92 105.023 72.56V64.46C105.023 61.1 104.093 58.43 102.233 56.45C100.373 54.41 97.9428 53.39 94.9428 53.39C92.1828 53.39 89.8728 54.08 88.0128 55.46C86.2128 56.84 85.3128 58.67 85.3128 60.95V75.89C85.3128 78.35 86.2128 80.24 88.0128 81.56C89.8728 82.88 92.1828 83.54 94.9428 83.54ZM155.767 45.02H166.567L147.667 100.37C147.067 102.05 146.377 103.49 145.597 104.69C144.877 105.95 144.007 106.97 142.987 107.75C141.967 108.53 140.737 109.1 139.297 109.46C137.857 109.82 136.177 110 134.257 110H127.327V100.82H135.787L137.947 94.25L121.117 45.02H132.547L140.737 69.86L143.797 81.74H144.337L147.577 69.86L155.767 45.02ZM188.834 92C184.874 92 181.844 90.98 179.744 88.94C177.704 86.84 176.684 83.87 176.684 80.03V54.2H169.754V45.02H173.354C175.094 45.02 176.264 44.63 176.864 43.85C177.524 43.01 177.854 41.78 177.854 40.16V32.15H188.204V45.02H197.834V54.2H188.204V82.82H197.114V92H188.834ZM226.464 93.08C222.984 93.08 219.864 92.51 217.104 91.37C214.404 90.17 212.094 88.52 210.174 86.42C208.314 84.26 206.874 81.68 205.854 78.68C204.834 75.62 204.324 72.2 204.324 68.42C204.324 64.7 204.804 61.34 205.764 58.34C206.784 55.34 208.224 52.79 210.084 50.69C211.944 48.53 214.224 46.88 216.924 45.74C219.624 44.54 222.684 43.94 226.104 43.94C229.764 43.94 232.944 44.57 235.644 45.83C238.344 47.09 240.564 48.8 242.304 50.96C244.044 53.12 245.334 55.64 246.174 58.52C247.074 61.34 247.524 64.37 247.524 67.61V71.39H216.294V72.56C216.294 75.98 217.254 78.74 219.174 80.84C221.094 82.88 223.944 83.9 227.724 83.9C230.604 83.9 232.944 83.3 234.744 82.1C236.604 80.9 238.254 79.37 239.694 77.51L245.904 84.44C243.984 87.14 241.344 89.27 237.984 90.83C234.684 92.33 230.844 93.08 226.464 93.08ZM226.284 52.58C223.224 52.58 220.794 53.6 218.994 55.64C217.194 57.68 216.294 60.32 216.294 63.56V64.28H235.554V63.47C235.554 60.23 234.744 57.62 233.124 55.64C231.564 53.6 229.284 52.58 226.284 52.58Z" fill="#141414"/>
<defs>
<radialGradient id="paint0_radial_301_11" cx="0" cy="0" r="1" gradientUnits="userSpaceOnUse" gradientTransform="translate(23.4545 51.4545) rotate(50.1586) scale(37.1773)">
<stop stop-color="#00E985"/>
<stop offset="0.90625" stop-color="#966097"/>
</radialGradient>
</defs>
</svg>
