<svg width="36" height="35" viewBox="0 0 36 35" fill="none" xmlns="http://www.w3.org/2000/svg">
<g clip-path="url(#clip0_24_71)">
<path d="M18.063 34.4585C6.3435 34.4585 0 27.3535 0 18.1808C0 8.3786 7.143 0.512939 19.914 0.512939C29.235 0.512939 36 6.39688 36 14.503C36 27.1976 20.505 30.549 21.282 23.307C20.217 24.9215 18.501 26.7371 15.2025 26.7371C11.4285 26.7371 9.0825 24.0531 9.0825 19.7327C9.0825 13.2571 13.464 7.78554 18.651 7.78554C21.1395 7.78554 22.851 9.062 23.5665 11.0219L24.2625 8.6438H27.7695C27.4035 9.85614 24.288 21.0689 24.288 21.0689C23.316 24.9536 26.313 25.0221 28.971 22.9588C33.9645 19.1993 34.2225 9.368 27.474 5.2676C20.2425 1.055 3.7815 3.66182 3.7815 17.9345C3.7815 26.1106 9.7065 31.604 18.525 31.604C23.679 31.604 26.838 30.2489 29.4675 28.7655L31.233 31.2397C28.6665 32.6473 24.5415 34.4585 18.063 34.4585ZM14.547 13.6141C13.4745 15.5667 12.7815 18.0963 12.7815 20.0605C12.7815 25.3208 18.0645 25.3543 20.6595 20.4088C21.7275 18.3775 22.416 15.7882 22.416 13.8094C22.416 9.55888 17.1735 8.80554 14.547 13.6141Z" fill="#00E985"/>
</g>
<defs>
<clipPath id="clip0_24_71">
<rect width="36" height="34.9714" fill="white"/>
</clipPath>
</defs>
</svg>
